<svg viewBox="0 0 1126 1118" xmlns="http://www.w3.org/2000/svg" fill-rule="evenodd" clip-rule="evenodd" stroke-linejoin="round" stroke-miterlimit="2"><path fill="none" d="M0-.006h1125.423v1117.949H0z"/><ellipse cx="4491.65" cy="2363.39" rx="516.362" ry="497.026" fill="#fff" transform="matrix(1.06515 0 0 1.10658 -4220.855 -2058.82)"/><g transform="matrix(1.26364 0 0 .97637 -400.43 117.657)"><path fill="none" d="M469.689 15.316h586.087v858.963H469.689z"/><clipPath id="a"><path d="M469.689 15.316h586.087v858.963H469.689z"/></clipPath><g clip-path="url(#a)"><path fill="#bdbdbd" d="M720.188 280.346h73.54v126.752h-73.54zM468.744 278.794h73.518v127.941h-73.518z"/><ellipse cx="-120.875" cy="109.224" rx="120.925" ry="120.075" fill="#3f4859" transform="matrix(.6712 0 0 .8346 712.003 27.38)"/><ellipse cx="-112.537" cy="192.957" rx="97.143" ry="95.126" fill="#3f4859" transform="matrix(.86026 0 0 .84599 727.586 -12.124)"/><ellipse cx="150.63" cy="313.064" rx="101.13" ry="93.162" fill="#3f4859" transform="matrix(.79137 0 0 1.22324 511.344 -236.822)"/><path d="M713.167 104.97c0-4.791-3.006-8.682-6.709-8.682H554.534c-3.703 0-6.71 3.89-6.71 8.683v17.366c0 4.792 3.007 8.683 6.71 8.683h151.924c3.703 0 6.71-3.89 6.71-8.683v-17.366zM720.3 271.97c0-15.96-10.013-28.919-22.345-28.919H564.42c-12.332 0-22.345 12.958-22.345 28.918v140.494c0 15.96 10.013 28.918 22.345 28.918h133.535c12.332 0 22.345-12.958 22.345-28.918V271.97z" fill="#3f4859"/><path d="M631.944 815.053l77.096-398.83H554.848l77.096 398.83z" fill="#3f4859"/><path d="M703.87 755.28c0-5.895-3.7-10.682-8.255-10.682H569.862c-4.555 0-8.254 4.787-8.254 10.683v132.304c0 5.896 3.699 10.682 8.254 10.682h125.753c4.556 0 8.254-4.786 8.254-10.682V755.28z" fill="#3f4859"/><path d="M689.395 708.88c0-17.647-11.07-31.974-24.706-31.974h-62.414c-13.635 0-24.706 14.327-24.706 31.974v77.828c0 17.647 11.07 31.975 24.706 31.975h62.414c13.635 0 24.706-14.328 24.706-31.975V708.88z" fill="#3f4859"/><path d="M633.027 1102.773l58.33-462.305h-116.66l58.33 462.305z" fill="#3f4859"/><path d="M689.93 423.48c0-20.592-12.917-37.31-28.828-37.31h-57.657c-15.91 0-28.828 16.718-28.828 37.31v208.282c0 20.592 12.917 37.31 28.828 37.31h57.657c15.91 0 28.828-16.718 28.828-37.31V423.479z" fill="#3f4859"/><path d="M695.134 632.965c0-2.334-1.464-4.228-3.267-4.228h-120.28c-1.803 0-3.267 1.894-3.267 4.228v8.457c0 2.333 1.464 4.228 3.267 4.228h120.28c1.803 0 3.267-1.895 3.267-4.228v-8.457zM695.134 595.848c0-2.14-1.342-3.877-2.996-3.877H571.317c-1.654 0-2.997 1.738-2.997 3.877v7.757c0 2.14 1.343 3.877 2.997 3.877h120.82c1.655 0 2.997-1.737 2.997-3.877v-7.757zM695.134 562.175c0-2.068-1.297-3.748-2.895-3.748H571.216c-1.598 0-2.896 1.68-2.896 3.748v7.495c0 2.068 1.298 3.748 2.896 3.748h121.023c1.598 0 2.895-1.68 2.895-3.748v-7.495z" fill="#3f4859"/><g><path fill="#bdbdbd" d="M997.716 281.495h73.54v127.941h-73.54zM746.257 279.943h73.518v127.644h-73.518z"/><ellipse cx="-120.875" cy="109.224" rx="120.925" ry="120.075" fill="#28afb0" transform="matrix(.6712 0 0 .8346 989.33 27.876)"/><ellipse cx="-112.537" cy="192.957" rx="97.143" ry="95.126" fill="#28afb0" transform="matrix(.86026 0 0 .84599 1005.1 -10.973)"/><ellipse cx="150.63" cy="313.064" rx="101.13" ry="93.162" fill="#28afb0" transform="matrix(.79137 0 0 1.22324 788.857 -235.671)"/><path d="M990.681 106.122c0-4.792-3.006-8.683-6.709-8.683H832.048c-3.703 0-6.71 3.89-6.71 8.683v17.366c0 4.792 3.007 8.683 6.71 8.683h151.924c3.703 0 6.71-3.89 6.71-8.683v-17.366zM997.813 273.12c0-15.96-10.013-28.917-22.345-28.917H841.933c-12.332 0-22.345 12.958-22.345 28.918v140.494c0 15.96 10.013 28.918 22.345 28.918h133.535c12.332 0 22.345-12.958 22.345-28.918V273.12z" fill="#28afb0"/><path d="M909.457 816.203l77.096-398.83H832.361l77.096 398.83z" fill="#28afb0"/><path d="M981.382 756.432c0-5.896-3.698-10.683-8.254-10.683H847.375c-4.555 0-8.254 4.787-8.254 10.683v132.304c0 5.896 3.699 10.682 8.254 10.682h125.753c4.556 0 8.254-4.786 8.254-10.682V756.432z" fill="#28afb0"/><path d="M966.906 710.031c0-17.647-11.07-31.974-24.706-31.974h-62.414c-13.635 0-24.706 14.327-24.706 31.974v77.828c0 17.647 11.07 31.975 24.706 31.975H942.2c13.635 0 24.706-14.328 24.706-31.975v-77.828z" fill="#28afb0"/><path d="M910.54 1092.554l58.33-462.305H852.21l58.33 462.305z" fill="#28afb0"/><path d="M967.442 424.63c0-20.591-12.917-37.31-28.828-37.31h-57.657c-15.91 0-28.828 16.719-28.828 37.31v208.283c0 20.592 12.917 37.31 28.828 37.31h57.657c15.91 0 28.828-16.718 28.828-37.31V424.63z" fill="#28afb0"/><path d="M972.647 634.116c0-2.333-1.464-4.228-3.267-4.228H849.1c-1.803 0-3.267 1.895-3.267 4.228v8.457c0 2.333 1.464 4.228 3.267 4.228h120.28c1.803 0 3.267-1.895 3.267-4.228v-8.457zM972.647 597c0-2.14-1.342-3.878-2.996-3.878H848.83c-1.654 0-2.997 1.738-2.997 3.878v7.756c0 2.14 1.343 3.878 2.997 3.878h120.82c1.655 0 2.997-1.738 2.997-3.878V597zM972.647 563.325c0-2.068-1.297-3.747-2.895-3.747H848.729c-1.598 0-2.896 1.679-2.896 3.747v7.496c0 2.068 1.298 3.747 2.896 3.747h121.023c1.598 0 2.895-1.68 2.895-3.747v-7.496z" fill="#28afb0"/></g></g></g></svg>