<?xml version="1.0" encoding="UTF-8" standalone="no"?>
<!DOCTYPE svg PUBLIC "-//W3C//DTD SVG 1.1//EN" "http://www.w3.org/Graphics/SVG/1.1/DTD/svg11.dtd">
<svg width="100%" height="100%" viewBox="0 0 410 862" version="1.1" xmlns="http://www.w3.org/2000/svg" xmlns:xlink="http://www.w3.org/1999/xlink" xml:space="preserve" xmlns:serif="http://www.serif.com/" style="fill-rule:evenodd;clip-rule:evenodd;stroke-linejoin:round;stroke-miterlimit:2;">
    <g transform="matrix(0.536246,0,0,1,-521.09,0)">
        <g id="Leo-1" serif:id="Leo 1">
            <rect x="971.745" y="0" width="763.411" height="861.347" style="fill:none;"/>
            <g transform="matrix(2.42903,0,0,1.00278,-171.429,-15.359)">
                <g>
                    <g transform="matrix(20.5807,0,0,7.50652,190.324,-1713.39)">
                        <rect x="13.631" y="264.671" width="15.217" height="16.441" style="fill:rgb(189,189,189);"/>
                    </g>
                    <g transform="matrix(0.651149,0,0,0.812627,705.942,27.0631)">
                        <ellipse cx="-120.875" cy="109.224" rx="120.925" ry="120.075" style="fill:rgb(40,175,176);"/>
                    </g>
                    <g transform="matrix(0.834558,0,0,0.823714,721.06,-11.4016)">
                        <ellipse cx="-112.537" cy="192.957" rx="97.143" ry="95.126" style="fill:rgb(40,175,176);"/>
                    </g>
                    <g transform="matrix(0.767721,0,0,1.19103,511.279,-230.184)">
                        <ellipse cx="150.63" cy="313.064" rx="101.13" ry="93.162" style="fill:rgb(40,175,176);"/>
                    </g>
                    <g transform="matrix(0.984336,0,0,0.997232,304.504,-28.8666)">
                        <path d="M408.974,131.842C408.974,127.163 406.011,123.364 402.362,123.364L252.632,123.364C248.982,123.364 246.019,127.163 246.019,131.842L246.019,148.798C246.019,153.477 248.982,157.276 252.632,157.276L402.362,157.276C406.011,157.276 408.974,153.477 408.974,148.798L408.974,131.842Z" style="fill:rgb(40,175,176);"/>
                    </g>
                    <g transform="matrix(0.795176,0,0,2.98555,715.999,-448.57)">
                        <path d="M-2.525,239.079C-2.525,233.874 -14.741,229.648 -29.786,229.648L-192.699,229.648C-207.745,229.648 -219.96,233.874 -219.96,239.079L-219.96,284.898C-219.96,290.103 -207.745,294.329 -192.699,294.329L-29.786,294.329C-14.741,294.329 -2.525,290.103 -2.525,284.898L-2.525,239.079Z" style="fill:rgb(40,175,176);"/>
                    </g>
                    <g transform="matrix(0.628686,1.99093e-18,-3.03378e-18,-1.58422,523.37,2306.24)">
                        <path d="M166.865,954.566L285.831,1199.69L47.899,1199.69L166.865,954.566Z" style="fill:rgb(40,175,176);"/>
                    </g>
                    <g transform="matrix(0.871141,0,0,0.997232,672.496,10.1941)">
                        <path d="M29.336,727.619C29.336,721.862 25.217,717.189 20.144,717.189L-119.897,717.189C-124.97,717.189 -129.089,721.862 -129.089,727.619L-129.089,856.797C-129.089,862.554 -124.97,867.227 -119.897,867.227L20.144,867.227C25.217,867.227 29.336,862.554 29.336,856.797L29.336,727.619Z" style="fill:rgb(40,175,176);"/>
                    </g>
                    <g transform="matrix(0.767721,0,0,1.02691,808.521,-8.97356)">
                        <path d="M-162.183,681.261C-162.183,664.529 -176.172,650.944 -193.402,650.944L-272.271,650.944C-289.501,650.944 -303.49,664.529 -303.49,681.261L-303.49,755.054C-303.49,771.786 -289.501,785.371 -272.271,785.371L-193.402,785.371C-176.172,785.371 -162.183,771.786 -162.183,755.054L-162.183,681.261Z" style="fill:rgb(40,175,176);"/>
                    </g>
                    <g transform="matrix(0.47566,-3.79516e-17,5.78308e-17,-1.83635,549.955,2827.06)">
                        <path d="M166.865,954.566L285.831,1199.69L47.899,1199.69L166.865,954.566Z" style="fill:rgb(40,175,176);"/>
                    </g>
                    <g transform="matrix(0.778775,0,0,0.997232,805.97,12.9977)">
                        <path d="M-155.939,400.845C-155.939,380.74 -172.03,364.417 -191.85,364.417L-263.673,364.417C-283.493,364.417 -299.584,380.74 -299.584,400.845L-299.584,604.207C-299.584,624.312 -283.493,640.635 -263.673,640.635L-191.85,640.635C-172.03,640.635 -155.939,624.312 -155.939,604.207L-155.939,400.845Z" style="fill:rgb(40,175,176);"/>
                    </g>
                    <g transform="matrix(0.508808,0,0,1.40929,567.485,-747.047)">
                        <path d="M239.958,967.686C239.958,966.074 237.167,964.765 233.729,964.765L4.397,964.765C0.959,964.765 -1.832,966.074 -1.832,967.686L-1.832,973.529C-1.832,975.141 0.959,976.45 4.397,976.45L233.729,976.45C237.167,976.45 239.958,975.141 239.958,973.529L239.958,967.686Z" style="fill:rgb(40,175,176);"/>
                    </g>
                    <g transform="matrix(0.508808,0,0,1.29253,567.485,-670.199)">
                        <path d="M239.958,967.686C239.958,966.074 237.398,964.765 234.245,964.765L3.881,964.765C0.728,964.765 -1.832,966.074 -1.832,967.686L-1.832,973.529C-1.832,975.141 0.728,976.45 3.881,976.45L234.245,976.45C237.398,976.45 239.958,975.141 239.958,973.529L239.958,967.686Z" style="fill:rgb(40,175,176);"/>
                    </g>
                    <g transform="matrix(0.508808,0,0,1.24909,567.485,-660.95)">
                        <path d="M239.958,967.686C239.958,966.074 237.484,964.765 234.437,964.765L3.689,964.765C0.642,964.765 -1.832,966.074 -1.832,967.686L-1.832,973.529C-1.832,975.141 0.642,976.45 3.689,976.45L234.437,976.45C237.484,976.45 239.958,975.141 239.958,973.529L239.958,967.686Z" style="fill:rgb(40,175,176);"/>
                    </g>
                </g>
            </g>
        </g>
    </g>
</svg>
