<svg viewBox="0 0 495 540" xmlns="http://www.w3.org/2000/svg" fill-rule="evenodd" clip-rule="evenodd" stroke-linejoin="round" stroke-miterlimit="2"><g transform="matrix(.6481 0 0 .62686 -629.78 0)"><path fill="none" d="M971.745 0h763.411v861.347H971.745z"/><clipPath id="a"><path d="M971.745 0h763.411v861.347H971.745z"/></clipPath><g clip-path="url(#a)"><path fill="#404040" d="M972.918 394.82h762.65v47.856h-762.65zM970.788 72.083h762.65v47.857h-762.65z"/><g transform="matrix(.12579 0 0 .2406 1450.28 17.07)"><clipPath id="b"><path d="M971.745 0h763.857v861.919H971.745z"/></clipPath><g clip-path="url(#b)"><path fill="none" d="M971.745 0h763.411v861.347H971.745z"/><ellipse cx="-120.875" cy="109.224" rx="120.925" ry="120.075" fill="#28afb0" transform="matrix(1.57694 0 0 .81489 1543.122 10.776)"/><ellipse cx="-112.537" cy="192.957" rx="97.143" ry="95.126" fill="#28afb0" transform="matrix(2.02112 0 0 .826 1580.173 -27.155)"/><ellipse cx="150.63" cy="313.064" rx="101.13" ry="93.162" fill="#28afb0" transform="matrix(1.85925 0 0 1.19434 1072.13 -246.546)"/><path d="M1546.299 87.174c0-4.68-7.063-8.478-15.762-8.478h-356.933c-8.701 0-15.765 3.799-15.765 8.478v16.956c0 4.679 7.064 8.478 15.765 8.478h356.933c8.699 0 15.762-3.8 15.762-8.478V87.174zM1563.054 250.228c0-15.583-23.525-28.235-52.498-28.235h-313.728c-28.975 0-52.498 12.652-52.498 28.235v137.175c0 15.583 23.523 28.235 52.498 28.235h313.728c28.973 0 52.498-12.652 52.498-28.235V250.228z" fill="#28afb0"/><path d="M1355.47 780.482l181.13-389.41h-362.26l181.13 389.41z" fill="#28afb0"/><path d="M1524.452 722.123c0-5.757-8.69-10.43-19.393-10.43h-295.446c-10.702 0-19.392 4.673-19.392 10.43V851.3c0 5.757 8.69 10.43 19.392 10.43h295.446c10.703 0 19.393-4.673 19.393-10.43V722.123z" fill="#28afb0"/><path d="M1490.44 676.818c0-17.23-26.009-31.22-58.044-31.22H1285.76c-32.035 0-58.044 13.99-58.044 31.22v75.99c0 17.23 26.009 31.219 58.044 31.219h146.637c32.035 0 58.044-13.99 58.044-31.22v-75.989z" fill="#28afb0"/><path d="M1358.013 1050.305l137.042-451.384h-274.084l137.042 451.384z" fill="#28afb0"/><path d="M1491.7 398.159c0-20.106-30.349-36.429-67.73-36.429h-135.46c-37.38 0-67.728 16.323-67.728 36.429V601.52c0 20.106 30.348 36.429 67.729 36.429h135.46c37.38 0 67.728-16.323 67.728-36.429V398.16z" fill="#28afb0"/><path d="M1503.93 602.696c0-2.278-3.44-4.128-7.676-4.128h-282.588c-4.236 0-7.676 1.85-7.676 4.128v8.257c0 2.278 3.44 4.128 7.676 4.128h282.588c4.236 0 7.675-1.85 7.675-4.128v-8.257zM1503.93 566.456c0-2.089-3.155-3.786-7.04-3.786h-283.86c-3.885 0-7.04 1.697-7.04 3.786v7.574c0 2.09 3.155 3.786 7.04 3.786h283.86c3.885 0 7.04-1.697 7.04-3.786v-7.574zM1503.93 533.577c0-2.02-3.05-3.659-6.804-3.659h-284.332c-3.755 0-6.804 1.64-6.804 3.659v7.319c0 2.019 3.049 3.658 6.804 3.658h284.332c3.755 0 6.803-1.64 6.803-3.658v-7.319z" fill="#28afb0"/></g></g><g transform="matrix(.12579 0 0 .2406 1187.61 17.141)"><clipPath id="c"><path d="M971.745 0h763.857v861.919H971.745z"/></clipPath><g clip-path="url(#c)"><path fill="none" d="M971.745 0h763.411v861.347H971.745z"/><ellipse cx="-120.875" cy="109.224" rx="120.925" ry="120.075" fill="#28afb0" transform="matrix(1.57694 0 0 .81489 1543.122 10.776)"/><ellipse cx="-112.537" cy="192.957" rx="97.143" ry="95.126" fill="#28afb0" transform="matrix(2.02112 0 0 .826 1580.173 -27.155)"/><ellipse cx="150.63" cy="313.064" rx="101.13" ry="93.162" fill="#28afb0" transform="matrix(1.85925 0 0 1.19434 1072.13 -246.546)"/><path d="M1546.299 87.174c0-4.68-7.063-8.478-15.762-8.478h-356.933c-8.701 0-15.765 3.799-15.765 8.478v16.956c0 4.679 7.064 8.478 15.765 8.478h356.933c8.699 0 15.762-3.8 15.762-8.478V87.174zM1563.054 250.228c0-15.583-23.525-28.235-52.498-28.235h-313.728c-28.975 0-52.498 12.652-52.498 28.235v137.175c0 15.583 23.523 28.235 52.498 28.235h313.728c28.973 0 52.498-12.652 52.498-28.235V250.228z" fill="#28afb0"/><path d="M1355.47 780.482l181.13-389.41h-362.26l181.13 389.41z" fill="#28afb0"/><path d="M1524.452 722.123c0-5.757-8.69-10.43-19.393-10.43h-295.446c-10.702 0-19.392 4.673-19.392 10.43V851.3c0 5.757 8.69 10.43 19.392 10.43h295.446c10.703 0 19.393-4.673 19.393-10.43V722.123z" fill="#28afb0"/><path d="M1490.44 676.818c0-17.23-26.009-31.22-58.044-31.22H1285.76c-32.035 0-58.044 13.99-58.044 31.22v75.99c0 17.23 26.009 31.219 58.044 31.219h146.637c32.035 0 58.044-13.99 58.044-31.22v-75.989z" fill="#28afb0"/><path d="M1358.013 1050.305l137.042-451.384h-274.084l137.042 451.384z" fill="#28afb0"/><path d="M1491.7 398.159c0-20.106-30.349-36.429-67.73-36.429h-135.46c-37.38 0-67.728 16.323-67.728 36.429V601.52c0 20.106 30.348 36.429 67.729 36.429h135.46c37.38 0 67.728-16.323 67.728-36.429V398.16z" fill="#28afb0"/><path d="M1503.93 602.696c0-2.278-3.44-4.128-7.676-4.128h-282.588c-4.236 0-7.676 1.85-7.676 4.128v8.257c0 2.278 3.44 4.128 7.676 4.128h282.588c4.236 0 7.675-1.85 7.675-4.128v-8.257zM1503.93 566.456c0-2.089-3.155-3.786-7.04-3.786h-283.86c-3.885 0-7.04 1.697-7.04 3.786v7.574c0 2.09 3.155 3.786 7.04 3.786h283.86c3.885 0 7.04-1.697 7.04-3.786v-7.574zM1503.93 533.577c0-2.02-3.05-3.659-6.804-3.659h-284.332c-3.755 0-6.804 1.64-6.804 3.659v7.319c0 2.019 3.049 3.658 6.804 3.658h284.332c3.755 0 6.803-1.64 6.803-3.658v-7.319z" fill="#28afb0"/></g></g><g transform="matrix(.12579 0 0 .2406 921.853 18.276)"><clipPath id="d"><path d="M971.745 0h763.857v861.919H971.745z"/></clipPath><g clip-path="url(#d)"><path fill="none" d="M971.745 0h763.411v861.347H971.745z"/><ellipse cx="-120.875" cy="109.224" rx="120.925" ry="120.075" fill="#28afb0" transform="matrix(1.57694 0 0 .81489 1543.122 10.776)"/><ellipse cx="-112.537" cy="192.957" rx="97.143" ry="95.126" fill="#28afb0" transform="matrix(2.02112 0 0 .826 1580.173 -27.155)"/><ellipse cx="150.63" cy="313.064" rx="101.13" ry="93.162" fill="#28afb0" transform="matrix(1.85925 0 0 1.19434 1072.13 -246.546)"/><path d="M1546.299 87.174c0-4.68-7.063-8.478-15.762-8.478h-356.933c-8.701 0-15.765 3.799-15.765 8.478v16.956c0 4.679 7.064 8.478 15.765 8.478h356.933c8.699 0 15.762-3.8 15.762-8.478V87.174zM1563.054 250.228c0-15.583-23.525-28.235-52.498-28.235h-313.728c-28.975 0-52.498 12.652-52.498 28.235v137.175c0 15.583 23.523 28.235 52.498 28.235h313.728c28.973 0 52.498-12.652 52.498-28.235V250.228z" fill="#28afb0"/><path d="M1355.47 780.482l181.13-389.41h-362.26l181.13 389.41z" fill="#28afb0"/><path d="M1524.452 722.123c0-5.757-8.69-10.43-19.393-10.43h-295.446c-10.702 0-19.392 4.673-19.392 10.43V851.3c0 5.757 8.69 10.43 19.392 10.43h295.446c10.703 0 19.393-4.673 19.393-10.43V722.123z" fill="#28afb0"/><path d="M1490.44 676.818c0-17.23-26.009-31.22-58.044-31.22H1285.76c-32.035 0-58.044 13.99-58.044 31.22v75.99c0 17.23 26.009 31.219 58.044 31.219h146.637c32.035 0 58.044-13.99 58.044-31.22v-75.989z" fill="#28afb0"/><path d="M1358.013 1050.305l137.042-451.384h-274.084l137.042 451.384z" fill="#28afb0"/><path d="M1491.7 398.159c0-20.106-30.349-36.429-67.73-36.429h-135.46c-37.38 0-67.728 16.323-67.728 36.429V601.52c0 20.106 30.348 36.429 67.729 36.429h135.46c37.38 0 67.728-16.323 67.728-36.429V398.16z" fill="#28afb0"/><path d="M1503.93 602.696c0-2.278-3.44-4.128-7.676-4.128h-282.588c-4.236 0-7.676 1.85-7.676 4.128v8.257c0 2.278 3.44 4.128 7.676 4.128h282.588c4.236 0 7.675-1.85 7.675-4.128v-8.257zM1503.93 566.456c0-2.089-3.155-3.786-7.04-3.786h-283.86c-3.885 0-7.04 1.697-7.04 3.786v7.574c0 2.09 3.155 3.786 7.04 3.786h283.86c3.885 0 7.04-1.697 7.04-3.786v-7.574zM1503.93 533.577c0-2.02-3.05-3.659-6.804-3.659h-284.332c-3.755 0-6.804 1.64-6.804 3.659v7.319c0 2.019 3.049 3.658 6.804 3.658h284.332c3.755 0 6.803-1.64 6.803-3.658v-7.319z" fill="#28afb0"/></g></g><g transform="matrix(.12579 0 0 .2406 1329.33 340.791)"><clipPath id="e"><path d="M971.745 0h763.857v861.919H971.745z"/></clipPath><g clip-path="url(#e)"><path fill="none" d="M971.745 0h763.411v861.347H971.745z"/><ellipse cx="-120.875" cy="109.224" rx="120.925" ry="120.075" fill="#3f4859" transform="matrix(1.57694 0 0 .81489 1543.122 10.776)"/><ellipse cx="-112.537" cy="192.957" rx="97.143" ry="95.126" fill="#3f4859" transform="matrix(2.02112 0 0 .826 1580.173 -27.155)"/><ellipse cx="150.63" cy="313.064" rx="101.13" ry="93.162" fill="#3f4859" transform="matrix(1.85925 0 0 1.19434 1072.13 -246.546)"/><path d="M1546.299 87.174c0-4.68-7.063-8.478-15.762-8.478h-356.933c-8.701 0-15.765 3.799-15.765 8.478v16.956c0 4.679 7.064 8.478 15.765 8.478h356.933c8.699 0 15.762-3.8 15.762-8.478V87.174zM1563.054 250.228c0-15.583-23.525-28.235-52.498-28.235h-313.728c-28.975 0-52.498 12.652-52.498 28.235v137.175c0 15.583 23.523 28.235 52.498 28.235h313.728c28.973 0 52.498-12.652 52.498-28.235V250.228z" fill="#3f4859"/><path d="M1355.47 780.482l181.13-389.41h-362.26l181.13 389.41z" fill="#3f4859"/><path d="M1524.452 722.123c0-5.757-8.69-10.43-19.393-10.43h-295.446c-10.702 0-19.392 4.673-19.392 10.43V851.3c0 5.757 8.69 10.43 19.392 10.43h295.446c10.703 0 19.393-4.673 19.393-10.43V722.123z" fill="#3f4859"/><path d="M1490.44 676.818c0-17.23-26.009-31.22-58.044-31.22H1285.76c-32.035 0-58.044 13.99-58.044 31.22v75.99c0 17.23 26.009 31.219 58.044 31.219h146.637c32.035 0 58.044-13.99 58.044-31.22v-75.989z" fill="#3f4859"/><path d="M1358.013 1050.305l137.042-451.384h-274.084l137.042 451.384z" fill="#3f4859"/><path d="M1491.7 398.159c0-20.106-30.349-36.429-67.73-36.429h-135.46c-37.38 0-67.728 16.323-67.728 36.429V601.52c0 20.106 30.348 36.429 67.729 36.429h135.46c37.38 0 67.728-16.323 67.728-36.429V398.16z" fill="#3f4859"/><path d="M1503.93 602.696c0-2.278-3.44-4.128-7.676-4.128h-282.588c-4.236 0-7.676 1.85-7.676 4.128v8.257c0 2.278 3.44 4.128 7.676 4.128h282.588c4.236 0 7.675-1.85 7.675-4.128v-8.257zM1503.93 566.456c0-2.089-3.155-3.786-7.04-3.786h-283.86c-3.885 0-7.04 1.697-7.04 3.786v7.574c0 2.09 3.155 3.786 7.04 3.786h283.86c3.885 0 7.04-1.697 7.04-3.786v-7.574zM1503.93 533.577c0-2.02-3.05-3.659-6.804-3.659h-284.332c-3.755 0-6.804 1.64-6.804 3.659v7.319c0 2.019 3.049 3.658 6.804 3.658h284.332c3.755 0 6.803-1.64 6.803-3.658v-7.319z" fill="#3f4859"/></g></g><g transform="matrix(.12579 0 0 .2406 1051.69 340.746)"><clipPath id="f"><path d="M971.745 0h763.857v861.919H971.745z"/></clipPath><g clip-path="url(#f)"><path fill="none" d="M971.745 0h763.411v861.347H971.745z"/><ellipse cx="-120.875" cy="109.224" rx="120.925" ry="120.075" fill="#3f4859" transform="matrix(1.57694 0 0 .81489 1543.122 10.776)"/><ellipse cx="-112.537" cy="192.957" rx="97.143" ry="95.126" fill="#3f4859" transform="matrix(2.02112 0 0 .826 1580.173 -27.155)"/><ellipse cx="150.63" cy="313.064" rx="101.13" ry="93.162" fill="#3f4859" transform="matrix(1.85925 0 0 1.19434 1072.13 -246.546)"/><path d="M1546.299 87.174c0-4.68-7.063-8.478-15.762-8.478h-356.933c-8.701 0-15.765 3.799-15.765 8.478v16.956c0 4.679 7.064 8.478 15.765 8.478h356.933c8.699 0 15.762-3.8 15.762-8.478V87.174zM1563.054 250.228c0-15.583-23.525-28.235-52.498-28.235h-313.728c-28.975 0-52.498 12.652-52.498 28.235v137.175c0 15.583 23.523 28.235 52.498 28.235h313.728c28.973 0 52.498-12.652 52.498-28.235V250.228z" fill="#3f4859"/><path d="M1355.47 780.482l181.13-389.41h-362.26l181.13 389.41z" fill="#3f4859"/><path d="M1524.452 722.123c0-5.757-8.69-10.43-19.393-10.43h-295.446c-10.702 0-19.392 4.673-19.392 10.43V851.3c0 5.757 8.69 10.43 19.392 10.43h295.446c10.703 0 19.393-4.673 19.393-10.43V722.123z" fill="#3f4859"/><path d="M1490.44 676.818c0-17.23-26.009-31.22-58.044-31.22H1285.76c-32.035 0-58.044 13.99-58.044 31.22v75.99c0 17.23 26.009 31.219 58.044 31.219h146.637c32.035 0 58.044-13.99 58.044-31.22v-75.989z" fill="#3f4859"/><path d="M1358.013 1050.305l137.042-451.384h-274.084l137.042 451.384z" fill="#3f4859"/><path d="M1491.7 398.159c0-20.106-30.349-36.429-67.73-36.429h-135.46c-37.38 0-67.728 16.323-67.728 36.429V601.52c0 20.106 30.348 36.429 67.729 36.429h135.46c37.38 0 67.728-16.323 67.728-36.429V398.16z" fill="#3f4859"/><path d="M1503.93 602.696c0-2.278-3.44-4.128-7.676-4.128h-282.588c-4.236 0-7.676 1.85-7.676 4.128v8.257c0 2.278 3.44 4.128 7.676 4.128h282.588c4.236 0 7.675-1.85 7.675-4.128v-8.257zM1503.93 566.456c0-2.089-3.155-3.786-7.04-3.786h-283.86c-3.885 0-7.04 1.697-7.04 3.786v7.574c0 2.09 3.155 3.786 7.04 3.786h283.86c3.885 0 7.04-1.697 7.04-3.786v-7.574zM1503.93 533.577c0-2.02-3.05-3.659-6.804-3.659h-284.332c-3.755 0-6.804 1.64-6.804 3.659v7.319c0 2.019 3.049 3.658 6.804 3.658h284.332c3.755 0 6.803-1.64 6.803-3.658v-7.319z" fill="#3f4859"/></g></g><path fill="#404040" d="M970.408 711.837h762.65v47.857h-762.65z"/><g transform="matrix(.12579 0 0 .2406 1187.69 658.826)"><clipPath id="g"><path d="M971.745 0h763.857v861.919H971.745z"/></clipPath><g clip-path="url(#g)"><path fill="none" d="M971.745 0h763.411v861.347H971.745z"/><ellipse cx="-120.875" cy="109.224" rx="120.925" ry="120.075" fill="#3f4859" transform="matrix(1.57694 0 0 .81489 1543.122 10.776)"/><ellipse cx="-112.537" cy="192.957" rx="97.143" ry="95.126" fill="#3f4859" transform="matrix(2.02112 0 0 .826 1580.173 -27.155)"/><ellipse cx="150.63" cy="313.064" rx="101.13" ry="93.162" fill="#3f4859" transform="matrix(1.85925 0 0 1.19434 1072.13 -246.546)"/><path d="M1546.299 87.174c0-4.68-7.063-8.478-15.762-8.478h-356.933c-8.701 0-15.765 3.799-15.765 8.478v16.956c0 4.679 7.064 8.478 15.765 8.478h356.933c8.699 0 15.762-3.8 15.762-8.478V87.174zM1563.054 250.228c0-15.583-23.525-28.235-52.498-28.235h-313.728c-28.975 0-52.498 12.652-52.498 28.235v137.175c0 15.583 23.523 28.235 52.498 28.235h313.728c28.973 0 52.498-12.652 52.498-28.235V250.228z" fill="#3f4859"/><path d="M1355.47 780.482l181.13-389.41h-362.26l181.13 389.41z" fill="#3f4859"/><path d="M1524.452 722.123c0-5.757-8.69-10.43-19.393-10.43h-295.446c-10.702 0-19.392 4.673-19.392 10.43V851.3c0 5.757 8.69 10.43 19.392 10.43h295.446c10.703 0 19.393-4.673 19.393-10.43V722.123z" fill="#3f4859"/><path d="M1490.44 676.818c0-17.23-26.009-31.22-58.044-31.22H1285.76c-32.035 0-58.044 13.99-58.044 31.22v75.99c0 17.23 26.009 31.219 58.044 31.219h146.637c32.035 0 58.044-13.99 58.044-31.22v-75.989z" fill="#3f4859"/><path d="M1358.013 1050.305l137.042-451.384h-274.084l137.042 451.384z" fill="#3f4859"/><path d="M1491.7 398.159c0-20.106-30.349-36.429-67.73-36.429h-135.46c-37.38 0-67.728 16.323-67.728 36.429V601.52c0 20.106 30.348 36.429 67.729 36.429h135.46c37.38 0 67.728-16.323 67.728-36.429V398.16z" fill="#3f4859"/><path d="M1503.93 602.696c0-2.278-3.44-4.128-7.676-4.128h-282.588c-4.236 0-7.676 1.85-7.676 4.128v8.257c0 2.278 3.44 4.128 7.676 4.128h282.588c4.236 0 7.675-1.85 7.675-4.128v-8.257zM1503.93 566.456c0-2.089-3.155-3.786-7.04-3.786h-283.86c-3.885 0-7.04 1.697-7.04 3.786v7.574c0 2.09 3.155 3.786 7.04 3.786h283.86c3.885 0 7.04-1.697 7.04-3.786v-7.574zM1503.93 533.577c0-2.02-3.05-3.659-6.804-3.659h-284.332c-3.755 0-6.804 1.64-6.804 3.659v7.319c0 2.019 3.049 3.658 6.804 3.658h284.332c3.755 0 6.803-1.64 6.803-3.658v-7.319z" fill="#3f4859"/></g></g></g></g></svg>